<mxfile host="app.diagrams.net" modified="2023-03-10T00:09:16.845Z" agent="5.0 (X11)" etag="MYKKJJa7ab0h19QPtywF" version="21.0.6" type="github">
  <diagram id="R2lEEEUBdFMjLlhIrx00" name="Page-1">
    <mxGraphModel dx="2284" dy="869" grid="1" gridSize="10" guides="1" tooltips="1" connect="1" arrows="1" fold="1" page="1" pageScale="1" pageWidth="850" pageHeight="1100" math="0" shadow="0" extFonts="Permanent Marker^https://fonts.googleapis.com/css?family=Permanent+Marker">
      <root>
        <mxCell id="0" />
        <mxCell id="1" parent="0" />
        <mxCell id="FqAEWOyi9yit1yU_Qe8B-1" value="&lt;div&gt;INVENTORY&lt;/div&gt;" style="whiteSpace=wrap;html=1;align=center;" vertex="1" parent="1">
          <mxGeometry x="290" y="160" width="150" height="50" as="geometry" />
        </mxCell>
        <mxCell id="FqAEWOyi9yit1yU_Qe8B-5" style="edgeStyle=orthogonalEdgeStyle;rounded=0;orthogonalLoop=1;jettySize=auto;html=1;exitX=0.5;exitY=1;exitDx=0;exitDy=0;" edge="1" parent="1" source="FqAEWOyi9yit1yU_Qe8B-3" target="FqAEWOyi9yit1yU_Qe8B-4">
          <mxGeometry relative="1" as="geometry" />
        </mxCell>
        <mxCell id="FqAEWOyi9yit1yU_Qe8B-3" value="EMPLOYEE" style="whiteSpace=wrap;html=1;align=center;" vertex="1" parent="1">
          <mxGeometry x="-80" y="160" width="150" height="50" as="geometry" />
        </mxCell>
        <mxCell id="FqAEWOyi9yit1yU_Qe8B-6" style="edgeStyle=orthogonalEdgeStyle;rounded=0;orthogonalLoop=1;jettySize=auto;html=1;exitX=0.5;exitY=1;exitDx=0;exitDy=0;entryX=0.549;entryY=-0.028;entryDx=0;entryDy=0;entryPerimeter=0;" edge="1" parent="1" source="FqAEWOyi9yit1yU_Qe8B-4" target="FqAEWOyi9yit1yU_Qe8B-7">
          <mxGeometry relative="1" as="geometry">
            <mxPoint x="-120" y="350" as="targetPoint" />
            <Array as="points">
              <mxPoint x="-5" y="340" />
              <mxPoint x="-128" y="340" />
            </Array>
          </mxGeometry>
        </mxCell>
        <mxCell id="FqAEWOyi9yit1yU_Qe8B-4" value="O" style="ellipse;whiteSpace=wrap;html=1;" vertex="1" parent="1">
          <mxGeometry x="-20" y="270" width="30" height="30" as="geometry" />
        </mxCell>
        <mxCell id="FqAEWOyi9yit1yU_Qe8B-7" value="EMPLOYEE" style="whiteSpace=wrap;html=1;align=center;" vertex="1" parent="1">
          <mxGeometry x="-210" y="390" width="150" height="50" as="geometry" />
        </mxCell>
        <mxCell id="FqAEWOyi9yit1yU_Qe8B-23" style="edgeStyle=orthogonalEdgeStyle;rounded=0;orthogonalLoop=1;jettySize=auto;html=1;exitX=1;exitY=0;exitDx=0;exitDy=0;entryX=0;entryY=0.5;entryDx=0;entryDy=0;" edge="1" parent="1" source="FqAEWOyi9yit1yU_Qe8B-8" target="FqAEWOyi9yit1yU_Qe8B-20">
          <mxGeometry relative="1" as="geometry" />
        </mxCell>
        <mxCell id="FqAEWOyi9yit1yU_Qe8B-8" value="SALES_CLERK" style="whiteSpace=wrap;html=1;align=center;" vertex="1" parent="1">
          <mxGeometry x="45" y="390" width="150" height="50" as="geometry" />
        </mxCell>
        <mxCell id="FqAEWOyi9yit1yU_Qe8B-9" style="edgeStyle=orthogonalEdgeStyle;rounded=0;orthogonalLoop=1;jettySize=auto;html=1;exitX=0.5;exitY=1;exitDx=0;exitDy=0;" edge="1" parent="1" source="FqAEWOyi9yit1yU_Qe8B-4" target="FqAEWOyi9yit1yU_Qe8B-8">
          <mxGeometry relative="1" as="geometry">
            <mxPoint x="90" y="390" as="targetPoint" />
            <mxPoint x="23" y="330" as="sourcePoint" />
            <Array as="points">
              <mxPoint x="-5" y="340" />
              <mxPoint x="110" y="340" />
            </Array>
          </mxGeometry>
        </mxCell>
        <mxCell id="FqAEWOyi9yit1yU_Qe8B-11" value="" style="edgeStyle=orthogonalEdgeStyle;rounded=0;orthogonalLoop=1;jettySize=auto;html=1;" edge="1" parent="1" source="FqAEWOyi9yit1yU_Qe8B-10" target="FqAEWOyi9yit1yU_Qe8B-3">
          <mxGeometry relative="1" as="geometry" />
        </mxCell>
        <mxCell id="FqAEWOyi9yit1yU_Qe8B-10" value="&lt;u&gt;eid&lt;/u&gt;" style="ellipse;whiteSpace=wrap;html=1;align=center;" vertex="1" parent="1">
          <mxGeometry x="110" y="110" width="60" height="30" as="geometry" />
        </mxCell>
        <mxCell id="FqAEWOyi9yit1yU_Qe8B-13" value="" style="edgeStyle=orthogonalEdgeStyle;rounded=0;orthogonalLoop=1;jettySize=auto;html=1;" edge="1" parent="1" source="FqAEWOyi9yit1yU_Qe8B-12" target="FqAEWOyi9yit1yU_Qe8B-3">
          <mxGeometry relative="1" as="geometry">
            <Array as="points">
              <mxPoint x="100" y="115" />
              <mxPoint x="-5" y="115" />
            </Array>
          </mxGeometry>
        </mxCell>
        <mxCell id="FqAEWOyi9yit1yU_Qe8B-12" value="salary" style="ellipse;whiteSpace=wrap;html=1;align=center;" vertex="1" parent="1">
          <mxGeometry x="50" y="30" width="100" height="40" as="geometry" />
        </mxCell>
        <mxCell id="FqAEWOyi9yit1yU_Qe8B-19" value="" style="edgeStyle=orthogonalEdgeStyle;rounded=0;orthogonalLoop=1;jettySize=auto;html=1;" edge="1" parent="1" source="FqAEWOyi9yit1yU_Qe8B-14" target="FqAEWOyi9yit1yU_Qe8B-3">
          <mxGeometry relative="1" as="geometry" />
        </mxCell>
        <mxCell id="FqAEWOyi9yit1yU_Qe8B-14" value="name" style="ellipse;whiteSpace=wrap;html=1;align=center;" vertex="1" parent="1">
          <mxGeometry x="-55" y="30" width="100" height="40" as="geometry" />
        </mxCell>
        <mxCell id="FqAEWOyi9yit1yU_Qe8B-22" style="edgeStyle=orthogonalEdgeStyle;rounded=0;orthogonalLoop=1;jettySize=auto;html=1;exitX=1;exitY=0.5;exitDx=0;exitDy=0;entryX=0.5;entryY=1;entryDx=0;entryDy=0;" edge="1" parent="1" source="FqAEWOyi9yit1yU_Qe8B-20" target="FqAEWOyi9yit1yU_Qe8B-1">
          <mxGeometry relative="1" as="geometry" />
        </mxCell>
        <mxCell id="FqAEWOyi9yit1yU_Qe8B-20" value="MANAGES" style="shape=rhombus;perimeter=rhombusPerimeter;whiteSpace=wrap;html=1;align=center;" vertex="1" parent="1">
          <mxGeometry x="220" y="290" width="120" height="50" as="geometry" />
        </mxCell>
        <mxCell id="FqAEWOyi9yit1yU_Qe8B-25" value="ITEM" style="whiteSpace=wrap;html=1;align=center;" vertex="1" parent="1">
          <mxGeometry x="620" y="160" width="150" height="50" as="geometry" />
        </mxCell>
        <mxCell id="FqAEWOyi9yit1yU_Qe8B-30" value="" style="edgeStyle=orthogonalEdgeStyle;rounded=0;orthogonalLoop=1;jettySize=auto;html=1;" edge="1" parent="1" source="FqAEWOyi9yit1yU_Qe8B-27" target="FqAEWOyi9yit1yU_Qe8B-25">
          <mxGeometry relative="1" as="geometry" />
        </mxCell>
        <mxCell id="FqAEWOyi9yit1yU_Qe8B-27" value="&lt;div&gt;price&lt;/div&gt;" style="ellipse;whiteSpace=wrap;html=1;align=center;" vertex="1" parent="1">
          <mxGeometry x="770" y="20" width="100" height="40" as="geometry" />
        </mxCell>
        <mxCell id="FqAEWOyi9yit1yU_Qe8B-31" value="" style="edgeStyle=orthogonalEdgeStyle;rounded=0;orthogonalLoop=1;jettySize=auto;html=1;" edge="1" parent="1" source="FqAEWOyi9yit1yU_Qe8B-28" target="FqAEWOyi9yit1yU_Qe8B-25">
          <mxGeometry relative="1" as="geometry" />
        </mxCell>
        <mxCell id="FqAEWOyi9yit1yU_Qe8B-28" value="history" style="ellipse;whiteSpace=wrap;html=1;align=center;" vertex="1" parent="1">
          <mxGeometry x="830" y="90" width="100" height="40" as="geometry" />
        </mxCell>
        <mxCell id="FqAEWOyi9yit1yU_Qe8B-33" value="" style="edgeStyle=orthogonalEdgeStyle;rounded=0;orthogonalLoop=1;jettySize=auto;html=1;" edge="1" parent="1" source="FqAEWOyi9yit1yU_Qe8B-32" target="FqAEWOyi9yit1yU_Qe8B-25">
          <mxGeometry relative="1" as="geometry" />
        </mxCell>
        <mxCell id="FqAEWOyi9yit1yU_Qe8B-32" value="&lt;u&gt;iid&lt;/u&gt;" style="ellipse;whiteSpace=wrap;html=1;align=center;" vertex="1" parent="1">
          <mxGeometry x="640" y="20" width="100" height="40" as="geometry" />
        </mxCell>
        <mxCell id="FqAEWOyi9yit1yU_Qe8B-37" value="" style="edgeStyle=orthogonalEdgeStyle;rounded=0;orthogonalLoop=1;jettySize=auto;html=1;" edge="1" parent="1" source="FqAEWOyi9yit1yU_Qe8B-34" target="FqAEWOyi9yit1yU_Qe8B-25">
          <mxGeometry relative="1" as="geometry" />
        </mxCell>
        <mxCell id="FqAEWOyi9yit1yU_Qe8B-34" value="rating" style="ellipse;whiteSpace=wrap;html=1;align=center;" vertex="1" parent="1">
          <mxGeometry x="530" y="20" width="100" height="40" as="geometry" />
        </mxCell>
      </root>
    </mxGraphModel>
  </diagram>
</mxfile>
